<mxfile host="app.diagrams.net" modified="2024-04-29T07:18:53.546Z" agent="Mozilla/5.0 (Macintosh; Intel Mac OS X 10_15_7) AppleWebKit/537.36 (KHTML, like Gecko) Chrome/124.0.0.0 Safari/537.36" version="24.2.1" etag="0_wdf_uSvln8CDM8lvE5" type="github">
  <diagram name="第 1 页" id="NIwS9FRLpReBvWJjHzti">
    <mxGraphModel>
      <root>
        <mxCell id="0" />
        <mxCell id="1" parent="0" />
      </root>
    </mxGraphModel>
  </diagram>
</mxfile>
